<?xml version="1.0" standalone="no"?>
<!DOCTYPE svg PUBLIC "-//W3C//DTD SVG 20010904//EN"
 "http://www.w3.org/TR/2001/REC-SVG-20010904/DTD/svg10.dtd">
<svg version="1.0" xmlns="http://www.w3.org/2000/svg"
 width="500.000000pt" height="500.000000pt" viewBox="0 0 500.000000 500.000000"
 preserveAspectRatio="xMidYMid meet">
<metadata>
Created by potrace 1.11, written by Peter Selinger 2001-2013
</metadata>
<g transform="translate(0.000000,500.000000) scale(0.100000,-0.100000)"
fill="#000000" stroke="none">
<path d="M2330 4633 c-58 -21 -81 -35 -173 -106 -118 -90 -138 -127 -142 -267
-4 -126 -12 -166 -57 -265 -52 -114 -67 -135 -128 -180 -54 -40 -54 -41 -9
-113 30 -47 29 -73 -4 -109 -13 -14 -18 -30 -14 -44 4 -13 1 -29 -6 -37 -6 -8
-12 -45 -12 -83 0 -54 -5 -74 -23 -98 -12 -17 -22 -41 -22 -54 0 -31 27 -88
52 -107 16 -13 17 -20 7 -48 -15 -43 -7 -95 26 -165 32 -69 29 -98 -15 -163
-36 -54 -36 -56 -5 -44 32 12 40 -2 14 -26 -43 -39 -109 -204 -109 -273 0 -2
10 4 23 15 35 32 70 51 107 59 l34 7 -17 -23 c-23 -32 -45 -82 -51 -116 -2
-15 -10 -42 -16 -60 -6 -17 -10 -44 -8 -60 3 -27 4 -26 30 22 l27 50 2 -60 c1
-33 1 -86 0 -117 -1 -40 6 -77 22 -120 35 -89 36 -93 43 -146 7 -54 59 -215
81 -250 8 -13 17 -35 19 -49 17 -92 111 -189 214 -221 19 -6 107 -13 195 -16
159 -5 185 -8 280 -27 48 -9 50 -9 70 18 53 74 147 158 230 207 19 12 23 12
10 2 -99 -77 -183 -165 -214 -223 -11 -21 -8 -23 45 -39 31 -9 70 -29 87 -45
l32 -29 -45 18 c-50 21 -186 58 -240 66 -104 15 -139 18 -237 18 -137 1 -233
-7 -355 -32 l-98 -20 -62 25 c-34 14 -64 25 -67 25 -3 0 -26 -18 -51 -40 -57
-50 -68 -51 -23 -2 52 54 84 131 82 189 -2 34 4 58 19 83 30 49 28 88 -9 144
-32 47 -35 70 -6 41 27 -26 35 -17 30 32 -8 77 -54 126 -129 137 -52 8 -86
-16 -103 -76 -7 -23 -26 -56 -42 -73 -17 -16 -40 -51 -52 -77 -12 -26 -25 -47
-29 -48 -11 0 -10 54 2 84 10 29 6 30 -70 26 -36 -2 -110 -37 -110 -52 0 -4
-5 -8 -11 -8 -6 0 -1 13 10 29 29 40 83 63 146 62 l53 0 -9 37 c-4 20 -17 66
-28 102 -11 35 -19 66 -17 67 10 11 58 -83 68 -133 7 -32 13 -61 15 -63 6 -9
31 28 38 57 3 17 19 45 35 62 l29 31 -47 34 c-26 19 -64 52 -85 75 -44 47 -73
51 -120 16 -18 -13 -48 -27 -67 -31 -50 -11 -86 -31 -136 -77 -23 -21 -44 -38
-46 -37 -2 1 -19 -1 -38 -5 -74 -14 -110 -73 -106 -173 2 -52 1 -60 -10 -45
-7 9 -10 20 -8 24 2 4 0 9 -6 13 -5 3 -10 18 -10 33 0 19 -3 23 -11 15 -17
-17 -18 -83 -2 -136 17 -58 11 -72 -12 -27 -41 79 -21 -9 40 -175 99 -273 111
-293 243 -437 34 -37 62 -74 62 -81 0 -20 80 -92 129 -117 26 -13 99 -77 175
-154 337 -339 679 -474 1014 -401 34 8 27 20 -21 39 -24 9 -52 24 -63 34 -11
9 -24 18 -29 18 -6 1 -39 5 -74 8 -36 4 -67 9 -70 10 -3 2 -23 7 -43 10 -215
34 -458 137 -578 246 l-45 40 45 -29 c73 -47 258 -136 353 -170 97 -34 267
-67 362 -71 33 -1 66 -2 73 -3 6 0 12 -6 12 -13 0 -8 21 -24 48 -38 152 -76
354 -82 429 -12 12 12 35 53 51 93 l29 72 -26 -13 c-14 -8 -41 -16 -60 -19
-39 -6 -52 -16 -25 -19 10 -1 -6 -4 -36 -8 -58 -6 -407 -4 -450 3 -14 2 -47 8
-75 12 -151 21 -347 92 -455 165 -67 44 -140 108 -140 122 0 5 15 -6 33 -23
93 -89 309 -177 502 -204 22 -3 47 -8 55 -10 64 -16 421 -28 455 -14 19 7 19
8 1 8 -33 2 -159 69 -207 110 -50 43 -96 126 -106 188 -6 42 3 43 10 2 9 -49
56 -127 99 -164 42 -37 161 -100 209 -111 184 -44 285 20 338 216 12 41 23
107 25 146 3 53 10 82 28 110 58 94 97 225 99 330 1 67 1 68 11 29 21 -85 -15
-257 -77 -369 -15 -28 -24 -66 -28 -121 -7 -83 -23 -153 -50 -217 -9 -21 -14
-38 -10 -38 10 0 188 108 212 129 13 12 27 21 30 21 14 0 170 158 200 203 47
70 88 164 104 243 15 69 16 246 3 309 -17 78 -40 147 -51 151 -6 3 -43 -9 -82
-25 -143 -59 -306 -77 -426 -46 -85 22 -79 39 9 24 198 -33 372 13 554 149 72
54 140 119 140 135 0 4 14 7 31 7 28 0 33 5 74 92 76 162 87 257 46 387 -43
132 -112 243 -203 325 -29 26 -65 59 -79 72 -15 14 -48 66 -74 117 -26 51 -51
97 -57 104 -5 7 -46 34 -91 60 -45 26 -92 59 -103 73 -12 14 -34 39 -49 55
-49 55 -195 378 -195 432 0 5 17 10 38 11 74 5 173 34 202 59 37 30 39 71 8
107 -20 22 -185 110 -275 145 -18 8 -33 16 -34 20 0 3 -2 23 -5 45 -2 21 -7
52 -12 70 -5 17 -5 42 -1 56 13 47 9 125 -11 199 -34 123 -55 151 -145 201
-33 18 -65 37 -71 42 -7 5 -45 13 -85 18 -41 5 -128 20 -194 34 -138 30 -256
33 -325 9z m66 -640 c82 -103 93 -143 83 -305 l-4 -57 -34 20 c-26 16 -32 17
-27 4 3 -8 9 -21 12 -29 5 -13 0 -13 -33 -4 -21 5 -46 14 -55 19 -21 11 -23 2
-5 -20 21 -25 48 -99 37 -106 -9 -6 -70 45 -150 124 -49 49 -48 75 1 28 13
-12 33 -29 44 -37 17 -12 16 -10 -2 11 -27 29 -29 49 -7 49 8 0 12 5 9 10 -3
6 -3 10 2 11 4 0 17 2 28 5 11 2 30 5 43 6 12 1 33 12 47 23 24 19 24 21 10
49 -20 38 1 57 27 26 9 -11 19 -17 21 -13 7 12 -9 46 -30 65 -46 42 -107 22
-188 -62 -27 -28 -63 -59 -79 -67 -28 -15 -31 -14 -48 7 l-18 22 -1 -23 c-3
-63 10 -90 41 -82 13 3 30 -5 51 -26 26 -26 30 -37 25 -62 -5 -27 -3 -29 17
-24 40 10 75 -12 134 -86 32 -39 70 -85 86 -102 68 -78 103 -198 74 -254 -16
-30 -52 -49 -62 -33 -3 4 -14 10 -25 13 -20 5 -20 5 1 -25 25 -35 26 -34 -66
-77 -120 -57 -203 -74 -269 -57 -27 7 -28 6 -16 -11 8 -10 23 -28 34 -41 l21
-23 -28 10 c-75 29 -133 76 -149 121 -11 32 -42 31 -60 -3 -10 -20 -12 -18
-30 18 -19 36 -26 104 -14 124 3 5 -6 17 -19 27 -30 23 -32 52 -5 103 56 111
186 149 353 105 99 -27 160 -55 200 -92 31 -29 36 -19 8 15 -39 47 -205 108
-315 116 -95 8 -209 -41 -244 -104 -16 -27 -32 -38 -32 -21 0 4 8 30 19 57 10
28 18 68 17 90 -2 50 8 65 47 65 l30 0 -27 21 c-31 25 -33 51 -5 78 24 22 67
33 76 18 3 -6 10 0 15 12 4 13 17 25 28 28 43 11 11 82 -48 104 -14 6 -43 7
-64 4 -30 -5 -38 -4 -38 8 0 17 46 57 65 57 7 0 16 7 19 16 3 8 10 12 16 9 6
-3 10 4 10 17 0 14 14 38 34 57 l34 33 17 -26 c24 -37 45 -33 101 20 73 70
132 104 176 104 34 0 42 -6 84 -57z m362 -2000 c20 -52 34 -104 30 -109 -7 -6
-67 120 -61 129 9 14 21 7 31 -20z"/>
</g>
</svg>
